Coordinates
version=1
nRows=10
nColumns=22
inDegrees=yes

Units are S.I. units (second, meters, Newtons, ...)
If the header above contains a line with 'inDegrees', this indicates whether rotational values are in degrees (yes) or radians (no).

endheader
time	pelvis_tilt	pelvis_list	pelvis_rotation	pelvis_tx	pelvis_ty	pelvis_tz	hip_flexion_r	hip_adduction_r	hip_rotation_r	knee_angle_r	ankle_angle_r	subtalar_angle_r	hip_flexion_l	hip_adduction_l	hip_rotation_l	knee_angle_l	ankle_angle_l	subtalar_angle_l	lumbar_extension	lumbar_bending	lumbar_rotation
      2.65000000	     -6.90944193	     -4.17036464	     -4.85520386	      0.44803031	      0.92694025	     -0.19986017	      3.49776881	      5.94414150	      4.43161492	    -23.44763260	     17.93319854	     -0.26994084	     33.49185227	     -8.37582616	      0.01402846	    -22.80363684	     -6.39817658	     -1.81607619	     -9.09056719	      2.32958449	      6.96351803
      2.66000000	     -6.77654299	     -4.05941735	     -4.50854880	      0.44025912	      0.92728967	     -0.19876273	      3.64411286	      5.95491225	      4.00355921	    -23.06591574	     18.16657060	     -0.65686194	     33.41469832	     -8.13436261	      0.63592463	    -22.86572194	     -5.89171554	     -1.75975902	     -9.14874376	      2.28954356	      6.66370191
      2.67000000	     -6.59039646	     -3.97096380	     -4.16205639	      0.43276616	      0.92774441	     -0.19771808	      3.72934314	      5.99374643	      3.62037336	    -22.70491050	     18.31827651	     -1.16681969	     33.30865256	     -7.90367599	      1.25993873	    -23.28815008	     -5.01154963	     -1.57885401	     -9.23747439	      2.26082913	      6.37676064
      2.68000000	     -6.36967892	     -3.88528991	     -3.87935232	      0.42551916	      0.92829014	     -0.19662062	      3.79614651	      6.04437671	      3.30129078	    -22.40085841	     18.43526546	     -1.85691069	     33.16210125	     -7.71554422	      1.73117987	    -24.02882183	     -3.81106098	     -1.16250136	     -9.33965763	      2.21252320	      6.18353249
      2.69000000	     -6.12792071	     -3.81844944	     -3.58946712	      0.41852703	      0.92893461	     -0.19559524	      3.81758692	      6.10939389	      2.96576727	    -22.07613102	     18.48760824	     -2.39590336	     32.98849431	     -7.54108381	      2.11619288	    -25.04560154	     -2.49544662	     -0.71595979	     -9.43817513	      2.17736493	      5.98305738
      2.70000000	     -5.87463636	     -3.76615560	     -3.34134613	      0.41169840	      0.92965812	     -0.19457738	      3.83862958	      6.19040103	      2.67080722	    -21.78953038	     18.49720006	     -2.92235024	     32.78924453	     -7.41389596	      2.32916782	    -26.31141395	     -1.11960144	     -0.13986482	     -9.53747328	      2.15009295	      5.81633287
      2.71000000	     -5.63122854	     -3.71670424	     -3.13853097	      0.40496116	      0.93043581	     -0.19351831	      3.89376619	      6.27761738	      2.42681710	    -21.55347276	     18.47012504	     -3.45625348	     32.56867790	     -7.33228237	      2.36987970	    -27.76412448	      0.25124007	      0.54542217	     -9.62283050	      2.10497247	      5.69887559
      2.72000000	     -5.40951924	     -3.70143852	     -2.95690421	      0.39834451	      0.93126426	     -0.19249779	      3.94700527	      6.39095953	      2.20533489	    -21.28082246	     18.37861378	     -3.87943576	     32.34391786	     -7.31549582	      2.27379197	    -29.37881777	      1.52159485	      1.19073442	     -9.67618026	      2.09564823	      5.60874302
      2.73000000	     -5.21739274	     -3.67763396	     -2.82678964	      0.39174155	      0.93211253	     -0.19146122	      4.07588148	      6.48934580	      2.03680436	    -21.08917264	     18.26195278	     -4.28686647	     32.10094010	     -7.33636078	      2.04415956	    -31.09850430	      2.69067600	      1.81483292	     -9.70434602	      2.06509821	      5.55257180
      2.74000000	     -5.05791044	     -3.68747641	     -2.71899531	      0.38518907	      0.93297818	     -0.19044056	      4.23265075	      6.61413979	      1.90835861	    -20.88954742	     18.08929252	     -4.60205941	     31.85448922	     -7.42150771	      1.74458105	    -32.91168814	      3.72180823	      2.30249793	     -9.69926854	      2.06537275	      5.51297654
